<mxfile host="app.diagrams.net" modified="2024-02-07T19:42:16.506Z" agent="Mozilla/5.0 (Windows NT 10.0; Win64; x64) AppleWebKit/537.36 (KHTML, like Gecko) Chrome/120.0.0.0 Safari/537.36" etag="wm4C0A6cIFk5TCMbh_Xe" version="23.1.1" type="github">
  <diagram name="PÃ¡gina-1" id="NzK1YhTJ4DpfCUipt_Pe">
    <mxGraphModel dx="1050" dy="530" grid="1" gridSize="10" guides="1" tooltips="1" connect="1" arrows="1" fold="1" page="1" pageScale="1" pageWidth="827" pageHeight="1169" math="0" shadow="0">
      <root>
        <mxCell id="0" />
        <mxCell id="1" parent="0" />
        <mxCell id="dCHRHp1OiHREjXk_zQXD-1" value="factura-cliente-sga-tube" style="swimlane;html=1;childLayout=stackLayout;resizeParent=1;resizeParentMax=0;horizontal=1;startSize=20;horizontalStack=0;whiteSpace=wrap;" vertex="1" parent="1">
          <mxGeometry x="100" y="90" width="1860" height="280" as="geometry" />
        </mxCell>
        <mxCell id="dCHRHp1OiHREjXk_zQXD-2" value="transformacion" style="swimlane;html=1;startSize=20;horizontal=0;" vertex="1" parent="dCHRHp1OiHREjXk_zQXD-1">
          <mxGeometry y="20" width="1860" height="140" as="geometry" />
        </mxCell>
        <mxCell id="dCHRHp1OiHREjXk_zQXD-42" style="edgeStyle=orthogonalEdgeStyle;rounded=0;orthogonalLoop=1;jettySize=auto;html=1;" edge="1" parent="dCHRHp1OiHREjXk_zQXD-2" source="dCHRHp1OiHREjXk_zQXD-5" target="dCHRHp1OiHREjXk_zQXD-36">
          <mxGeometry relative="1" as="geometry" />
        </mxCell>
        <mxCell id="dCHRHp1OiHREjXk_zQXD-86" style="edgeStyle=orthogonalEdgeStyle;rounded=0;orthogonalLoop=1;jettySize=auto;html=1;" edge="1" parent="dCHRHp1OiHREjXk_zQXD-2" source="dCHRHp1OiHREjXk_zQXD-5" target="dCHRHp1OiHREjXk_zQXD-74">
          <mxGeometry relative="1" as="geometry" />
        </mxCell>
        <mxCell id="dCHRHp1OiHREjXk_zQXD-5" value="" style="points=[[0.145,0.145,0],[0.5,0,0],[0.855,0.145,0],[1,0.5,0],[0.855,0.855,0],[0.5,1,0],[0.145,0.855,0],[0,0.5,0]];shape=mxgraph.bpmn.event;html=1;verticalLabelPosition=bottom;labelBackgroundColor=#ffffff;verticalAlign=top;align=center;perimeter=ellipsePerimeter;outlineConnect=0;aspect=fixed;outline=standard;symbol=general;" vertex="1" parent="dCHRHp1OiHREjXk_zQXD-2">
          <mxGeometry x="30" y="27.5" width="35" height="35" as="geometry" />
        </mxCell>
        <mxCell id="dCHRHp1OiHREjXk_zQXD-36" value="filtrar registro" style="points=[[0.25,0,0],[0.5,0,0],[0.75,0,0],[1,0.25,0],[1,0.5,0],[1,0.75,0],[0.75,1,0],[0.5,1,0],[0.25,1,0],[0,0.75,0],[0,0.5,0],[0,0.25,0]];shape=mxgraph.bpmn.task;whiteSpace=wrap;rectStyle=rounded;size=10;html=1;container=1;expand=0;collapsible=0;taskMarker=abstract;isLoopSub=1;" vertex="1" parent="dCHRHp1OiHREjXk_zQXD-2">
          <mxGeometry x="130" y="27.5" width="100" height="50" as="geometry" />
        </mxCell>
        <mxCell id="dCHRHp1OiHREjXk_zQXD-75" style="edgeStyle=orthogonalEdgeStyle;rounded=0;orthogonalLoop=1;jettySize=auto;html=1;" edge="1" parent="dCHRHp1OiHREjXk_zQXD-2" source="dCHRHp1OiHREjXk_zQXD-37" target="dCHRHp1OiHREjXk_zQXD-13">
          <mxGeometry relative="1" as="geometry" />
        </mxCell>
        <mxCell id="dCHRHp1OiHREjXk_zQXD-37" value="realizar cruce" style="points=[[0.25,0,0],[0.5,0,0],[0.75,0,0],[1,0.25,0],[1,0.5,0],[1,0.75,0],[0.75,1,0],[0.5,1,0],[0.25,1,0],[0,0.75,0],[0,0.5,0],[0,0.25,0]];shape=mxgraph.bpmn.task;whiteSpace=wrap;rectStyle=rounded;size=10;html=1;container=1;expand=0;collapsible=0;taskMarker=abstract;isLoopSub=1;" vertex="1" parent="dCHRHp1OiHREjXk_zQXD-2">
          <mxGeometry x="314" y="27.5" width="100" height="50" as="geometry" />
        </mxCell>
        <mxCell id="dCHRHp1OiHREjXk_zQXD-40" style="edgeStyle=orthogonalEdgeStyle;rounded=0;orthogonalLoop=1;jettySize=auto;html=1;entryX=0;entryY=0.5;entryDx=0;entryDy=0;entryPerimeter=0;" edge="1" parent="dCHRHp1OiHREjXk_zQXD-2" source="dCHRHp1OiHREjXk_zQXD-36" target="dCHRHp1OiHREjXk_zQXD-37">
          <mxGeometry relative="1" as="geometry" />
        </mxCell>
        <mxCell id="dCHRHp1OiHREjXk_zQXD-13" value="Relacionen entre tabla A&lt;br&gt;FILTRO&amp;nbsp;BSCS7" style="points=[[0.25,0,0],[0.5,0,0],[0.75,0,0],[1,0.25,0],[1,0.5,0],[1,0.75,0],[0.75,1,0],[0.5,1,0],[0.25,1,0],[0,0.75,0],[0,0.5,0],[0,0.25,0]];shape=mxgraph.bpmn.task;whiteSpace=wrap;rectStyle=rounded;size=10;html=1;container=1;expand=0;collapsible=0;taskMarker=abstract;fontSize=11;" vertex="1" parent="dCHRHp1OiHREjXk_zQXD-2">
          <mxGeometry x="570" y="27.5" width="110" height="50" as="geometry" />
        </mxCell>
        <mxCell id="dCHRHp1OiHREjXk_zQXD-52" value="agregar columna&lt;br&gt;cliente_numrecibocliente" style="points=[[0.25,0,0],[0.5,0,0],[0.75,0,0],[1,0.25,0],[1,0.5,0],[1,0.75,0],[0.75,1,0],[0.5,1,0],[0.25,1,0],[0,0.75,0],[0,0.5,0],[0,0.25,0]];shape=mxgraph.bpmn.task;whiteSpace=wrap;rectStyle=rounded;size=10;html=1;container=1;expand=0;collapsible=0;taskMarker=abstract;fontSize=11;" vertex="1" parent="dCHRHp1OiHREjXk_zQXD-2">
          <mxGeometry x="1220" y="27.5" width="130" height="50" as="geometry" />
        </mxCell>
        <mxCell id="dCHRHp1OiHREjXk_zQXD-81" style="edgeStyle=orthogonalEdgeStyle;rounded=0;orthogonalLoop=1;jettySize=auto;html=1;" edge="1" parent="dCHRHp1OiHREjXk_zQXD-2" source="dCHRHp1OiHREjXk_zQXD-74" target="dCHRHp1OiHREjXk_zQXD-80">
          <mxGeometry relative="1" as="geometry" />
        </mxCell>
        <mxCell id="dCHRHp1OiHREjXk_zQXD-74" value="Relacionen entre tabla B, FILTRO&amp;nbsp;BSCSIX&amp;nbsp;" style="points=[[0.25,0,0],[0.5,0,0],[0.75,0,0],[1,0.25,0],[1,0.5,0],[1,0.75,0],[0.75,1,0],[0.5,1,0],[0.25,1,0],[0,0.75,0],[0,0.5,0],[0,0.25,0]];shape=mxgraph.bpmn.task;whiteSpace=wrap;rectStyle=rounded;size=10;html=1;container=1;expand=0;collapsible=0;taskMarker=abstract;fontSize=11;" vertex="1" parent="dCHRHp1OiHREjXk_zQXD-2">
          <mxGeometry x="820" y="62.5" width="110" height="50" as="geometry" />
        </mxCell>
        <mxCell id="dCHRHp1OiHREjXk_zQXD-82" style="edgeStyle=orthogonalEdgeStyle;rounded=0;orthogonalLoop=1;jettySize=auto;html=1;" edge="1" parent="dCHRHp1OiHREjXk_zQXD-2" source="dCHRHp1OiHREjXk_zQXD-80" target="dCHRHp1OiHREjXk_zQXD-52">
          <mxGeometry relative="1" as="geometry" />
        </mxCell>
        <mxCell id="dCHRHp1OiHREjXk_zQXD-83" value="SI" style="edgeLabel;html=1;align=center;verticalAlign=middle;resizable=0;points=[];" vertex="1" connectable="0" parent="dCHRHp1OiHREjXk_zQXD-82">
          <mxGeometry x="0.0222" y="2" relative="1" as="geometry">
            <mxPoint x="1" y="-2" as="offset" />
          </mxGeometry>
        </mxCell>
        <mxCell id="dCHRHp1OiHREjXk_zQXD-80" value="existen registros?" style="points=[[0.25,0.25,0],[0.5,0,0],[0.75,0.25,0],[1,0.5,0],[0.75,0.75,0],[0.5,1,0],[0.25,0.75,0],[0,0.5,0]];shape=mxgraph.bpmn.gateway2;html=1;verticalLabelPosition=bottom;labelBackgroundColor=#ffffff;verticalAlign=top;align=center;perimeter=rhombusPerimeter;outlineConnect=0;outline=none;symbol=none;" vertex="1" parent="dCHRHp1OiHREjXk_zQXD-2">
          <mxGeometry x="1060" y="30" width="50" height="50" as="geometry" />
        </mxCell>
        <mxCell id="dCHRHp1OiHREjXk_zQXD-84" style="edgeStyle=orthogonalEdgeStyle;rounded=0;orthogonalLoop=1;jettySize=auto;html=1;entryX=0;entryY=0.6;entryDx=0;entryDy=0;entryPerimeter=0;exitX=0.5;exitY=0;exitDx=0;exitDy=0;exitPerimeter=0;" edge="1" parent="dCHRHp1OiHREjXk_zQXD-2" source="dCHRHp1OiHREjXk_zQXD-13" target="dCHRHp1OiHREjXk_zQXD-80">
          <mxGeometry relative="1" as="geometry">
            <mxPoint x="625" y="20" as="sourcePoint" />
            <mxPoint x="1060" y="47.5" as="targetPoint" />
            <Array as="points">
              <mxPoint x="625" y="10" />
              <mxPoint x="1061" y="10" />
            </Array>
          </mxGeometry>
        </mxCell>
        <mxCell id="dCHRHp1OiHREjXk_zQXD-3" value="data" style="swimlane;html=1;startSize=20;horizontal=0;" vertex="1" parent="dCHRHp1OiHREjXk_zQXD-1">
          <mxGeometry y="160" width="1860" height="120" as="geometry" />
        </mxCell>
        <mxCell id="dCHRHp1OiHREjXk_zQXD-7" value="&lt;font style=&quot;font-size: 9px;&quot;&gt;SERIEFACTURACION&lt;/font&gt;" style="shape=datastore;html=1;labelPosition=center;verticalLabelPosition=bottom;align=center;verticalAlign=top;" vertex="1" parent="dCHRHp1OiHREjXk_zQXD-3">
          <mxGeometry x="140" y="20" width="65" height="70" as="geometry" />
        </mxCell>
        <mxCell id="dCHRHp1OiHREjXk_zQXD-16" value="&lt;font style=&quot;font-size: 9px;&quot;&gt;FACTURA&lt;/font&gt;" style="shape=datastore;html=1;labelPosition=center;verticalLabelPosition=bottom;align=center;verticalAlign=top;" vertex="1" parent="dCHRHp1OiHREjXk_zQXD-3">
          <mxGeometry x="370" y="20" width="65" height="70" as="geometry" />
        </mxCell>
        <mxCell id="dCHRHp1OiHREjXk_zQXD-32" value="&lt;font style=&quot;font-size: 9px;&quot;&gt;SERIEFACTURACION&lt;/font&gt;" style="shape=datastore;html=1;labelPosition=center;verticalLabelPosition=bottom;align=center;verticalAlign=top;" vertex="1" parent="dCHRHp1OiHREjXk_zQXD-3">
          <mxGeometry x="290" y="20" width="65" height="70" as="geometry" />
        </mxCell>
        <mxCell id="dCHRHp1OiHREjXk_zQXD-34" value="fact_capexvariable_deta" style="shape=datastore;html=1;labelPosition=center;verticalLabelPosition=bottom;align=center;verticalAlign=top;" vertex="1" parent="dCHRHp1OiHREjXk_zQXD-3">
          <mxGeometry x="1260" y="25" width="65" height="70" as="geometry" />
        </mxCell>
        <mxCell id="dCHRHp1OiHREjXk_zQXD-43" value="&lt;font style=&quot;font-size: 9px;&quot;&gt;ACTIVO&lt;/font&gt;" style="shape=datastore;html=1;labelPosition=center;verticalLabelPosition=bottom;align=center;verticalAlign=top;" vertex="1" parent="dCHRHp1OiHREjXk_zQXD-3">
          <mxGeometry x="513" y="25" width="65" height="70" as="geometry" />
        </mxCell>
        <mxCell id="dCHRHp1OiHREjXk_zQXD-44" value="&lt;font style=&quot;font-size: 9px;&quot;&gt;FACTURA&lt;/font&gt;" style="shape=datastore;html=1;labelPosition=center;verticalLabelPosition=bottom;align=center;verticalAlign=top;" vertex="1" parent="dCHRHp1OiHREjXk_zQXD-3">
          <mxGeometry x="589" y="25" width="65" height="70" as="geometry" />
        </mxCell>
        <mxCell id="dCHRHp1OiHREjXk_zQXD-48" value="CLIENTEBSCSIX" style="shape=datastore;html=1;labelPosition=center;verticalLabelPosition=bottom;align=center;verticalAlign=top;fontSize=9;" vertex="1" parent="dCHRHp1OiHREjXk_zQXD-3">
          <mxGeometry x="670" y="25" width="65" height="70" as="geometry" />
        </mxCell>
        <mxCell id="dCHRHp1OiHREjXk_zQXD-77" value="&lt;font style=&quot;font-size: 9px;&quot;&gt;ACTIVO&lt;/font&gt;" style="shape=datastore;html=1;labelPosition=center;verticalLabelPosition=bottom;align=center;verticalAlign=top;" vertex="1" parent="dCHRHp1OiHREjXk_zQXD-3">
          <mxGeometry x="796" y="20" width="65" height="70" as="geometry" />
        </mxCell>
        <mxCell id="dCHRHp1OiHREjXk_zQXD-78" value="&lt;font style=&quot;font-size: 9px;&quot;&gt;FACTURA&lt;/font&gt;" style="shape=datastore;html=1;labelPosition=center;verticalLabelPosition=bottom;align=center;verticalAlign=top;" vertex="1" parent="dCHRHp1OiHREjXk_zQXD-3">
          <mxGeometry x="870" y="20" width="65" height="70" as="geometry" />
        </mxCell>
        <mxCell id="dCHRHp1OiHREjXk_zQXD-79" value="CLIENTEBSCSIX" style="shape=datastore;html=1;labelPosition=center;verticalLabelPosition=bottom;align=center;verticalAlign=top;fontSize=9;" vertex="1" parent="dCHRHp1OiHREjXk_zQXD-3">
          <mxGeometry x="950" y="20" width="65" height="70" as="geometry" />
        </mxCell>
        <mxCell id="dCHRHp1OiHREjXk_zQXD-64" value="" style="edgeStyle=elbowEdgeStyle;fontSize=12;html=1;endFill=0;startFill=0;endSize=6;startSize=6;dashed=1;dashPattern=1 4;endArrow=openThin;startArrow=none;rounded=0;" edge="1" parent="dCHRHp1OiHREjXk_zQXD-1" source="dCHRHp1OiHREjXk_zQXD-34" target="dCHRHp1OiHREjXk_zQXD-52">
          <mxGeometry width="160" relative="1" as="geometry">
            <mxPoint x="1100" y="190" as="sourcePoint" />
            <mxPoint x="1120" y="190" as="targetPoint" />
          </mxGeometry>
        </mxCell>
        <mxCell id="dCHRHp1OiHREjXk_zQXD-71" value="" style="edgeStyle=elbowEdgeStyle;fontSize=12;html=1;endFill=0;startFill=0;endSize=6;startSize=6;dashed=1;dashPattern=1 4;endArrow=openThin;startArrow=none;rounded=0;exitX=0.5;exitY=0;exitDx=0;exitDy=0;" edge="1" parent="dCHRHp1OiHREjXk_zQXD-1" source="dCHRHp1OiHREjXk_zQXD-16" target="dCHRHp1OiHREjXk_zQXD-37">
          <mxGeometry width="160" relative="1" as="geometry">
            <mxPoint x="520" y="190" as="sourcePoint" />
            <mxPoint x="680" y="190" as="targetPoint" />
          </mxGeometry>
        </mxCell>
        <mxCell id="dCHRHp1OiHREjXk_zQXD-72" value="" style="edgeStyle=elbowEdgeStyle;fontSize=12;html=1;endFill=0;startFill=0;endSize=6;startSize=6;dashed=1;dashPattern=1 4;endArrow=openThin;startArrow=none;rounded=0;exitX=0.5;exitY=0;exitDx=0;exitDy=0;entryX=0.36;entryY=1.002;entryDx=0;entryDy=0;entryPerimeter=0;" edge="1" parent="dCHRHp1OiHREjXk_zQXD-1" source="dCHRHp1OiHREjXk_zQXD-32" target="dCHRHp1OiHREjXk_zQXD-37">
          <mxGeometry width="160" relative="1" as="geometry">
            <mxPoint x="520" y="190" as="sourcePoint" />
            <mxPoint x="680" y="190" as="targetPoint" />
          </mxGeometry>
        </mxCell>
        <mxCell id="dCHRHp1OiHREjXk_zQXD-73" value="" style="edgeStyle=elbowEdgeStyle;fontSize=12;html=1;endFill=0;startFill=0;endSize=6;startSize=6;dashed=1;dashPattern=1 4;endArrow=openThin;startArrow=none;rounded=0;exitX=0.5;exitY=0;exitDx=0;exitDy=0;" edge="1" parent="dCHRHp1OiHREjXk_zQXD-1" source="dCHRHp1OiHREjXk_zQXD-7" target="dCHRHp1OiHREjXk_zQXD-36">
          <mxGeometry width="160" relative="1" as="geometry">
            <mxPoint x="400" y="190" as="sourcePoint" />
            <mxPoint x="560" y="190" as="targetPoint" />
          </mxGeometry>
        </mxCell>
      </root>
    </mxGraphModel>
  </diagram>
</mxfile>
